HIERARCHY
ROOT Hips
{
	OFFSET 0.000000 8.830580 0.000000
	CHANNELS 6 Xposition Yposition Zposition Zrotation Yrotation Xrotation 
	JOINT Spine
	{
		OFFSET 0.000000 0.010000 0.000000
		CHANNELS 3 Zrotation Yrotation Xrotation
		JOINT Spine1
		{
			OFFSET 0.000000 2.459130 0.000000
			CHANNELS 3 Zrotation Yrotation Xrotation
			JOINT Neck
			{
				OFFSET 0.000000 2.484630 0.000000
				CHANNELS 3 Zrotation Yrotation Xrotation
				JOINT Head_virtual
				{
					OFFSET 0.000000 0.000000 0.000000
					CHANNELS 3 Zrotation Yrotation Xrotation
					JOINT Head
					{
						OFFSET 0.000000 0.927525 0.000000
						CHANNELS 3 Zrotation Yrotation Xrotation
						End Site
						{
							OFFSET 0.000000 0.000000 0.000000
						}
					}
				}
				JOINT LeftUpArm_virtual
				{
					OFFSET 0.000000 0.000000 0.000000
					CHANNELS 3 Zrotation Yrotation Xrotation
					JOINT LeftUpArm
					{
						OFFSET 1.248820 0.000000 0.000000
						CHANNELS 3 Zrotation Yrotation Xrotation
						JOINT LeftForeArm
						{
							OFFSET 2.597580 0.000000 0.000000
							CHANNELS 3 Zrotation Yrotation Xrotation
							JOINT LeftHand
							{
								OFFSET 2.455420 0.000000 0.000000
								CHANNELS 3 Zrotation Yrotation Xrotation
								End Site
								{
									OFFSET 0.000000 0.000000 0.000000
								}
							}
						}
					}
				}
				JOINT RightUpArm_virtual
				{
					OFFSET -0.000000 -0.000000 -0.000000
					CHANNELS 3 Zrotation Yrotation Xrotation
					JOINT RightUpArm
					{
						OFFSET -1.248820 -0.000000 -0.000000
						CHANNELS 3 Zrotation Yrotation Xrotation
						JOINT RightForeArm
						{
							OFFSET -2.597580 -0.000000 -0.000000
							CHANNELS 3 Zrotation Yrotation Xrotation
							JOINT RightHand
							{
								OFFSET -2.455420 -0.000000 -0.000000
								CHANNELS 3 Zrotation Yrotation Xrotation
								End Site
								{
									OFFSET 0.000000 0.000000 0.000000
								}
							}
						}
					}
				}
			}
		}
	}
	JOINT LeftUpLeg
	{
		OFFSET 1.271939 0.000000 0.000000
		CHANNELS 3 Zrotation Yrotation Xrotation
		JOINT LeftLowLeg
		{
			OFFSET 0.000000 -4.342910 0.000000
			CHANNELS 3 Zrotation Yrotation Xrotation
			JOINT LeftFoot
			{
				OFFSET 0.000000 -4.487670 0.000000
				CHANNELS 3 Zrotation Yrotation Xrotation
				JOINT LeftToeBase
				{
					OFFSET 0.000000 0.000000 1.515070
					CHANNELS 3 Zrotation Yrotation Xrotation
					End Site
					{
						OFFSET 0.000000 0.000000 0.000000
					}
				}
			}
		}
	}
	JOINT RightUpLeg
	{
		OFFSET -1.271939 0.000000 0.000000
		CHANNELS 3 Zrotation Yrotation Xrotation
		JOINT RightLowLeg
		{
			OFFSET 0.000000 -4.342910 0.000000
			CHANNELS 3 Zrotation Yrotation Xrotation
			JOINT RightFoot
			{
				OFFSET 0.000000 -4.487670 0.000000
				CHANNELS 3 Zrotation Yrotation Xrotation
				JOINT RightToeBase
				{
					OFFSET 0.000000 0.000000 1.515070
					CHANNELS 3 Zrotation Yrotation Xrotation
					End Site
					{
						OFFSET 0.000000 0.000000 0.000000
					}
				}
			}
		}
	}
}
MOTION
Frames: 11
Frame Time: 0.041667
-18.061790 9.198713 38.868726 -114.598129 -85.349216 147.250308 1.691755 -1.008724 2.127740 8.092996 0.301408 3.225515 0.000000 0.000000 0.000000 -17.600732 -37.944166 18.122765 17.536848 36.413491 -79.380816 -35.672901 0.645982 11.473500 -9.956370 -34.552601 25.677099 0.000000 -52.094398 0.000000 67.935799 -37.084301 -4.935970 26.200100 9.200580 20.312401 -0.309823 32.988300 23.631901 0.000000 49.463200 0.000000 -55.120499 33.811401 9.738120 5.805323 16.663788 -18.987094 0.000000 0.000000 -0.358578 -22.460560 13.412811 6.401673 0.000000 0.000000 -39.041201 9.380017 3.296139 -22.072229 0.000000 0.000000 -5.676210 1.734827 -13.286111 11.727261 0.000000 0.000000 -31.211800 
-18.080258 9.199776 38.871159 -114.990531 -85.469547 147.947192 1.810083 -1.001726 2.336867 7.891758 0.309319 3.274738 0.000000 0.000000 0.000000 -17.607157 -37.947597 18.097504 17.470057 36.443928 -79.499656 -35.700199 0.657140 11.374100 -10.078000 -34.613098 25.684601 0.000000 -51.947899 0.000000 67.873802 -36.960400 -5.117850 26.278099 9.269610 20.398899 -0.452172 32.953602 23.401699 0.000000 49.410900 0.000000 -55.237301 33.816200 9.474210 5.602211 16.593221 -19.368976 0.000000 0.000000 -0.070554 -22.897095 13.367859 6.334421 0.000000 0.000000 -39.365000 9.234471 3.233696 -22.261038 0.000000 0.000000 -5.672030 1.856347 -13.159402 11.609749 0.000000 0.000000 -31.205099 
-18.100801 9.200897 38.872153 -114.857752 -85.641320 148.053850 1.908047 -1.009855 2.491727 7.714000 0.289754 3.454404 0.000000 0.000000 0.000000 -17.580734 -37.887206 17.964734 17.524550 36.432239 -79.490651 -35.687801 0.562788 11.355600 -10.183800 -34.686600 25.622999 0.000000 -51.808800 0.000000 67.871201 -36.492802 -5.110420 26.315800 9.332570 20.449800 -0.480464 32.968399 23.143400 0.000000 49.270401 0.000000 -55.284401 33.709301 9.171800 5.359700 16.687033 -19.742761 0.000000 0.000000 0.286132 -22.943155 13.133141 6.399174 0.000000 0.000000 -39.406900 9.096247 3.145050 -22.356789 0.000000 0.000000 -5.709610 1.879722 -13.132616 11.524880 0.000000 0.000000 -31.203400 
-18.122807 9.202975 38.873133 -114.423021 -85.865060 147.824027 2.013934 -1.033810 2.630618 7.510505 0.251529 3.677115 0.000000 0.000000 0.000000 -17.511079 -37.806873 17.754689 17.689369 36.400118 -79.411571 -35.690498 0.455453 11.436800 -10.215400 -34.886600 25.506001 0.000000 -51.490700 0.000000 67.619698 -36.131001 -5.167350 26.354500 9.422070 20.305300 -0.333230 32.955700 23.077999 0.000000 49.128399 0.000000 -55.045399 33.480301 8.992890 4.972246 16.981393 -20.178411 0.000000 0.000000 0.736829 -23.102165 12.794417 6.486110 0.000000 0.000000 -39.404400 8.962729 2.938136 -22.372799 0.000000 0.000000 -5.805160 2.004405 -12.980496 11.448100 0.000000 0.000000 -31.194201 
-18.147265 9.204371 38.873411 -114.067328 -86.124126 147.624047 2.125613 -1.087719 2.624013 7.224676 0.162142 4.150267 0.000000 0.000000 0.000000 -17.332098 -37.724287 17.388439 17.851355 36.395804 -79.331174 -35.621498 0.315245 11.407300 -10.341500 -35.200298 25.502199 0.000000 -50.980099 0.000000 67.248100 -35.625401 -4.906610 26.416599 9.604190 20.138201 -0.136733 32.950199 22.979200 0.000000 48.943501 0.000000 -54.520500 33.113800 9.039930 4.592459 17.265917 -20.632606 0.000000 0.000000 1.382340 -23.316093 12.305805 6.513745 0.000000 0.000000 -39.249100 8.787280 2.748688 -22.337283 0.000000 0.000000 -5.871670 2.104058 -12.885780 11.314291 0.000000 0.000000 -31.187700 
-18.174366 9.205677 38.874466 -113.149802 -86.418020 146.831481 2.156891 -1.168609 2.702572 7.130699 0.061260 4.395982 0.000000 0.000000 0.000000 -17.302217 -37.743157 17.294238 17.856688 36.380884 -79.381674 -35.649899 0.212305 11.391600 -10.620700 -35.567200 25.716900 0.000000 -50.231899 0.000000 66.609703 -34.886902 -4.738430 26.417500 9.739960 20.175600 0.100718 32.998600 22.761700 0.000000 48.572800 0.000000 -53.934101 32.938900 9.133950 4.324796 17.293209 -21.148816 0.000000 0.000000 2.318050 -23.471364 11.899298 6.427440 0.000000 0.000000 -39.272800 8.614141 2.494443 -22.290253 0.000000 0.000000 -5.874920 2.180992 -12.750699 11.125293 0.000000 0.000000 -31.151600 
-18.203548 9.205928 38.874934 -111.165678 -86.698180 144.881275 2.159568 -1.239110 2.846326 7.172073 -0.021493 4.541231 0.000000 0.000000 0.000000 -17.505895 -37.470455 17.184211 18.315348 36.154019 -79.111822 -35.738998 0.062176 11.485800 -10.987700 -36.003502 26.033199 0.000000 -49.214901 0.000000 65.797501 -33.808102 -4.894640 26.377100 9.918180 19.926800 0.645267 32.933998 23.036400 0.000000 48.174198 0.000000 -53.515701 32.994900 9.418650 4.168251 17.284707 -21.796264 0.000000 0.000000 3.788490 -23.164702 11.372050 6.176335 0.000000 0.000000 -39.289200 8.470177 2.245870 -22.118186 0.000000 0.000000 -5.894720 2.278645 -12.622056 10.939929 0.000000 0.000000 -31.148100 
-18.236567 9.204696 38.876540 -108.035623 -86.930627 141.705889 2.181955 -1.334721 2.973948 7.261035 -0.127937 4.689512 0.000000 0.000000 0.000000 -17.728576 -37.277732 17.194407 18.609092 35.983670 -78.973513 -35.864601 -0.062791 11.468800 -11.556400 -36.488998 26.620899 0.000000 -47.930901 0.000000 64.902496 -32.227200 -4.980580 26.375099 10.094000 19.932600 1.101470 32.945400 23.182899 0.000000 47.613800 0.000000 -53.054001 32.896999 9.515590 4.227637 16.985340 -22.610639 0.000000 0.000000 5.897630 -23.043653 10.850151 5.592356 0.000000 0.000000 -39.798000 8.283549 2.226220 -21.833124 0.000000 0.000000 -5.932010 2.516411 -12.770774 10.696354 0.000000 0.000000 -31.072399 
-18.269766 9.203631 38.877524 -103.982435 -87.141747 137.544818 2.211089 -1.399292 3.173307 7.337921 -0.197241 4.773068 0.000000 0.000000 0.000000 -17.863215 -37.178762 17.158120 18.904752 35.830741 -78.874622 -35.980000 -0.234491 11.596400 -12.199700 -37.035999 27.125299 0.000000 -46.446301 0.000000 63.804199 -30.425301 -5.325140 26.433100 10.192700 19.921600 1.521530 32.946098 23.312500 0.000000 47.125301 0.000000 -52.368599 32.979301 10.478000 4.276371 16.731223 -23.753684 0.000000 0.000000 8.661830 -23.059191 10.342820 4.877847 0.000000 0.000000 -40.517900 8.261659 1.903201 -21.504453 0.000000 0.000000 -5.920140 2.850503 -12.611806 10.428719 0.000000 0.000000 -31.045900 
-18.304520 9.203991 38.879930 -100.930270 -87.336495 134.257040 2.146791 -1.397839 3.533163 7.467464 -0.195305 4.714197 0.000000 0.000000 0.000000 -17.966945 -37.266253 17.293965 19.082500 35.757268 -78.930991 -36.083199 -0.507487 11.671500 -13.206000 -37.492802 27.802401 0.000000 -44.794399 0.000000 62.482498 -28.536200 -5.063580 26.515301 10.209300 20.025600 1.949160 32.900398 23.391001 0.000000 46.641399 0.000000 -51.317200 32.612701 10.992000 4.240566 16.579633 -25.140732 0.000000 0.000000 12.068200 -22.115905 10.167790 4.184634 0.000000 0.000000 -41.138700 8.189622 1.581236 -21.123028 0.000000 0.000000 -5.749700 2.947527 -12.436683 10.193879 0.000000 0.000000 -31.091499 
-18.339340 9.205685 38.882641 -99.143914 -87.557570 132.135615 1.843641 -1.436749 4.019526 7.798811 -0.251638 4.600505 0.000000 0.000000 0.000000 -18.223612 -37.089625 17.260304 19.486560 35.527083 -78.840777 -36.336899 -0.648349 11.915600 -14.089500 -38.006401 28.102301 0.000000 -43.015099 0.000000 61.190102 -26.497299 -5.046220 26.522100 10.367800 20.113001 2.591640 32.862801 23.408001 0.000000 46.057999 0.000000 -50.037399 32.342899 11.680800 3.881710 16.781023 -26.955243 0.000000 0.000000 16.322700 -20.850005 10.209059 3.679331 0.000000 0.000000 -42.840200 7.974123 1.405450 -20.666801 0.000000 0.000000 -5.552800 3.048337 -12.346548 9.950555 0.000000 0.000000 -31.099501 
